<svg xmlns="http://www.w3.org/2000/svg" viewBox="0 0 160 90" role="img" aria-labelledby="city-runner-title city-runner-desc">
  <title id="city-runner-title">City Runner: Rush thumbnail</title>
  <desc id="city-runner-desc">A runner leaping over a slate obstacle in front of layered city skyscrapers at dusk.</desc>
  <defs>
    <linearGradient id="city-runner-bg" x1="0" x2="0" y1="0" y2="1">
      <stop offset="0%" stop-color="#16213a" />
      <stop offset="60%" stop-color="#0b1020" />
      <stop offset="100%" stop-color="#06080f" />
    </linearGradient>
  </defs>
  <rect width="160" height="90" rx="8" fill="url(#city-runner-bg)" />
  <g fill="#1e2c4a">
    <rect x="6" y="30" width="16" height="42" />
    <rect x="26" y="20" width="13" height="52" />
    <rect x="43" y="36" width="18" height="36" />
    <rect x="99" y="26" width="15" height="46" />
    <rect x="118" y="38" width="12" height="34" />
    <rect x="134" y="22" width="18" height="50" />
  </g>
  <g fill="#2c3f68">
    <rect x="18" y="44" width="14" height="28" />
    <rect x="64" y="34" width="15" height="38" />
    <rect x="86" y="46" width="12" height="26" />
    <rect x="128" y="50" width="10" height="22" />
  </g>
  <g fill="#f2d45c" opacity="0.75">
    <rect x="29" y="26" width="3" height="4" />
    <rect x="34" y="34" width="3" height="4" />
    <rect x="102" y="32" width="3" height="4" />
    <rect x="138" y="30" width="3" height="4" />
    <rect x="68" y="42" width="3" height="4" />
  </g>
  <rect x="0" y="72" width="160" height="18" fill="#131c30" />
  <rect x="0" y="72" width="160" height="2" fill="#3a4d78" />
  <rect x="104" y="56" width="15" height="16" rx="2" fill="#94a3b8" />
  <path d="M62 60c4-10 12-14 18-10" stroke="rgba(255,255,255,0.18)" stroke-width="2" fill="none" stroke-linecap="round" />
  <g transform="translate(74 40)">
    <circle cx="6" cy="4" r="5" fill="#f6d9b0" stroke="#2a1f16" stroke-width="1.6" />
    <path d="M6 9v11" stroke="#e2e8f0" stroke-width="4.5" stroke-linecap="round" />
    <path d="M6 12l-7 5M6 12l8 3" stroke="#e2e8f0" stroke-width="3.4" stroke-linecap="round" />
    <path d="M6 20l-6 9M6 20l7 7" stroke="#3e6dd8" stroke-width="4" stroke-linecap="round" />
  </g>
</svg>
