<?xml version="1.0" encoding="UTF-8"?>
<svg xmlns="http://www.w3.org/2000/svg" viewBox="0 0 608 608" role="img" aria-labelledby="title desc">
  <title id="title">Chess board</title>
  <desc id="desc">Vector chess board with coordinates</desc>
  <rect x="0" y="0" width="608" height="608" fill="#0b1328"/>
  <rect x="42" y="42" width="524" height="524" fill="#111a33" stroke="#1b253d" stroke-width="2" rx="16"/>
  <rect x="48" y="48" width="64" height="64" fill="#f4f7ff"/>
  <rect x="112" y="48" width="64" height="64" fill="#26304d"/>
  <rect x="176" y="48" width="64" height="64" fill="#f4f7ff"/>
  <rect x="240" y="48" width="64" height="64" fill="#26304d"/>
  <rect x="304" y="48" width="64" height="64" fill="#f4f7ff"/>
  <rect x="368" y="48" width="64" height="64" fill="#26304d"/>
  <rect x="432" y="48" width="64" height="64" fill="#f4f7ff"/>
  <rect x="496" y="48" width="64" height="64" fill="#26304d"/>
  <rect x="48" y="112" width="64" height="64" fill="#26304d"/>
  <rect x="112" y="112" width="64" height="64" fill="#f4f7ff"/>
  <rect x="176" y="112" width="64" height="64" fill="#26304d"/>
  <rect x="240" y="112" width="64" height="64" fill="#f4f7ff"/>
  <rect x="304" y="112" width="64" height="64" fill="#26304d"/>
  <rect x="368" y="112" width="64" height="64" fill="#f4f7ff"/>
  <rect x="432" y="112" width="64" height="64" fill="#26304d"/>
  <rect x="496" y="112" width="64" height="64" fill="#f4f7ff"/>
  <rect x="48" y="176" width="64" height="64" fill="#f4f7ff"/>
  <rect x="112" y="176" width="64" height="64" fill="#26304d"/>
  <rect x="176" y="176" width="64" height="64" fill="#f4f7ff"/>
  <rect x="240" y="176" width="64" height="64" fill="#26304d"/>
  <rect x="304" y="176" width="64" height="64" fill="#f4f7ff"/>
  <rect x="368" y="176" width="64" height="64" fill="#26304d"/>
  <rect x="432" y="176" width="64" height="64" fill="#f4f7ff"/>
  <rect x="496" y="176" width="64" height="64" fill="#26304d"/>
  <rect x="48" y="240" width="64" height="64" fill="#26304d"/>
  <rect x="112" y="240" width="64" height="64" fill="#f4f7ff"/>
  <rect x="176" y="240" width="64" height="64" fill="#26304d"/>
  <rect x="240" y="240" width="64" height="64" fill="#f4f7ff"/>
  <rect x="304" y="240" width="64" height="64" fill="#26304d"/>
  <rect x="368" y="240" width="64" height="64" fill="#f4f7ff"/>
  <rect x="432" y="240" width="64" height="64" fill="#26304d"/>
  <rect x="496" y="240" width="64" height="64" fill="#f4f7ff"/>
  <rect x="48" y="304" width="64" height="64" fill="#f4f7ff"/>
  <rect x="112" y="304" width="64" height="64" fill="#26304d"/>
  <rect x="176" y="304" width="64" height="64" fill="#f4f7ff"/>
  <rect x="240" y="304" width="64" height="64" fill="#26304d"/>
  <rect x="304" y="304" width="64" height="64" fill="#f4f7ff"/>
  <rect x="368" y="304" width="64" height="64" fill="#26304d"/>
  <rect x="432" y="304" width="64" height="64" fill="#f4f7ff"/>
  <rect x="496" y="304" width="64" height="64" fill="#26304d"/>
  <rect x="48" y="368" width="64" height="64" fill="#26304d"/>
  <rect x="112" y="368" width="64" height="64" fill="#f4f7ff"/>
  <rect x="176" y="368" width="64" height="64" fill="#26304d"/>
  <rect x="240" y="368" width="64" height="64" fill="#f4f7ff"/>
  <rect x="304" y="368" width="64" height="64" fill="#26304d"/>
  <rect x="368" y="368" width="64" height="64" fill="#f4f7ff"/>
  <rect x="432" y="368" width="64" height="64" fill="#26304d"/>
  <rect x="496" y="368" width="64" height="64" fill="#f4f7ff"/>
  <rect x="48" y="432" width="64" height="64" fill="#f4f7ff"/>
  <rect x="112" y="432" width="64" height="64" fill="#26304d"/>
  <rect x="176" y="432" width="64" height="64" fill="#f4f7ff"/>
  <rect x="240" y="432" width="64" height="64" fill="#26304d"/>
  <rect x="304" y="432" width="64" height="64" fill="#f4f7ff"/>
  <rect x="368" y="432" width="64" height="64" fill="#26304d"/>
  <rect x="432" y="432" width="64" height="64" fill="#f4f7ff"/>
  <rect x="496" y="432" width="64" height="64" fill="#26304d"/>
  <rect x="48" y="496" width="64" height="64" fill="#26304d"/>
  <rect x="112" y="496" width="64" height="64" fill="#f4f7ff"/>
  <rect x="176" y="496" width="64" height="64" fill="#26304d"/>
  <rect x="240" y="496" width="64" height="64" fill="#f4f7ff"/>
  <rect x="304" y="496" width="64" height="64" fill="#26304d"/>
  <rect x="368" y="496" width="64" height="64" fill="#f4f7ff"/>
  <rect x="432" y="496" width="64" height="64" fill="#26304d"/>
  <rect x="496" y="496" width="64" height="64" fill="#f4f7ff"/>
  <text x="80.0" y="30" fill="#c9d5ff" font-family="'Inter', 'Segoe UI', sans-serif" font-size="18" text-anchor="middle">A</text>
  <text x="80.0" y="592" fill="#c9d5ff" font-family="'Inter', 'Segoe UI', sans-serif" font-size="18" text-anchor="middle">a</text>
  <text x="144.0" y="30" fill="#c9d5ff" font-family="'Inter', 'Segoe UI', sans-serif" font-size="18" text-anchor="middle">B</text>
  <text x="144.0" y="592" fill="#c9d5ff" font-family="'Inter', 'Segoe UI', sans-serif" font-size="18" text-anchor="middle">b</text>
  <text x="208.0" y="30" fill="#c9d5ff" font-family="'Inter', 'Segoe UI', sans-serif" font-size="18" text-anchor="middle">C</text>
  <text x="208.0" y="592" fill="#c9d5ff" font-family="'Inter', 'Segoe UI', sans-serif" font-size="18" text-anchor="middle">c</text>
  <text x="272.0" y="30" fill="#c9d5ff" font-family="'Inter', 'Segoe UI', sans-serif" font-size="18" text-anchor="middle">D</text>
  <text x="272.0" y="592" fill="#c9d5ff" font-family="'Inter', 'Segoe UI', sans-serif" font-size="18" text-anchor="middle">d</text>
  <text x="336.0" y="30" fill="#c9d5ff" font-family="'Inter', 'Segoe UI', sans-serif" font-size="18" text-anchor="middle">E</text>
  <text x="336.0" y="592" fill="#c9d5ff" font-family="'Inter', 'Segoe UI', sans-serif" font-size="18" text-anchor="middle">e</text>
  <text x="400.0" y="30" fill="#c9d5ff" font-family="'Inter', 'Segoe UI', sans-serif" font-size="18" text-anchor="middle">F</text>
  <text x="400.0" y="592" fill="#c9d5ff" font-family="'Inter', 'Segoe UI', sans-serif" font-size="18" text-anchor="middle">f</text>
  <text x="464.0" y="30" fill="#c9d5ff" font-family="'Inter', 'Segoe UI', sans-serif" font-size="18" text-anchor="middle">G</text>
  <text x="464.0" y="592" fill="#c9d5ff" font-family="'Inter', 'Segoe UI', sans-serif" font-size="18" text-anchor="middle">g</text>
  <text x="528.0" y="30" fill="#c9d5ff" font-family="'Inter', 'Segoe UI', sans-serif" font-size="18" text-anchor="middle">H</text>
  <text x="528.0" y="592" fill="#c9d5ff" font-family="'Inter', 'Segoe UI', sans-serif" font-size="18" text-anchor="middle">h</text>
  <text x="24" y="86.0" fill="#c9d5ff" font-family="'Inter', 'Segoe UI', sans-serif" font-size="20" text-anchor="middle">8</text>
  <text x="584" y="86.0" fill="#c9d5ff" font-family="'Inter', 'Segoe UI', sans-serif" font-size="20" text-anchor="middle">8</text>
  <text x="24" y="150.0" fill="#c9d5ff" font-family="'Inter', 'Segoe UI', sans-serif" font-size="20" text-anchor="middle">7</text>
  <text x="584" y="150.0" fill="#c9d5ff" font-family="'Inter', 'Segoe UI', sans-serif" font-size="20" text-anchor="middle">7</text>
  <text x="24" y="214.0" fill="#c9d5ff" font-family="'Inter', 'Segoe UI', sans-serif" font-size="20" text-anchor="middle">6</text>
  <text x="584" y="214.0" fill="#c9d5ff" font-family="'Inter', 'Segoe UI', sans-serif" font-size="20" text-anchor="middle">6</text>
  <text x="24" y="278.0" fill="#c9d5ff" font-family="'Inter', 'Segoe UI', sans-serif" font-size="20" text-anchor="middle">5</text>
  <text x="584" y="278.0" fill="#c9d5ff" font-family="'Inter', 'Segoe UI', sans-serif" font-size="20" text-anchor="middle">5</text>
  <text x="24" y="342.0" fill="#c9d5ff" font-family="'Inter', 'Segoe UI', sans-serif" font-size="20" text-anchor="middle">4</text>
  <text x="584" y="342.0" fill="#c9d5ff" font-family="'Inter', 'Segoe UI', sans-serif" font-size="20" text-anchor="middle">4</text>
  <text x="24" y="406.0" fill="#c9d5ff" font-family="'Inter', 'Segoe UI', sans-serif" font-size="20" text-anchor="middle">3</text>
  <text x="584" y="406.0" fill="#c9d5ff" font-family="'Inter', 'Segoe UI', sans-serif" font-size="20" text-anchor="middle">3</text>
  <text x="24" y="470.0" fill="#c9d5ff" font-family="'Inter', 'Segoe UI', sans-serif" font-size="20" text-anchor="middle">2</text>
  <text x="584" y="470.0" fill="#c9d5ff" font-family="'Inter', 'Segoe UI', sans-serif" font-size="20" text-anchor="middle">2</text>
  <text x="24" y="534.0" fill="#c9d5ff" font-family="'Inter', 'Segoe UI', sans-serif" font-size="20" text-anchor="middle">1</text>
  <text x="584" y="534.0" fill="#c9d5ff" font-family="'Inter', 'Segoe UI', sans-serif" font-size="20" text-anchor="middle">1</text>
</svg>
