<svg xmlns="http://www.w3.org/2000/svg" viewBox="0 0 160 90" role="img" aria-labelledby="title desc">
  <title id="title">Chess thumbnail</title>
  <desc id="desc">Chess pieces on a board with alternating squares.</desc>
  <defs>
    <linearGradient id="cbg" x1="0" x2="0" y1="0" y2="1">
      <stop offset="0%" stop-color="#1e1f24"/>
      <stop offset="100%" stop-color="#101117"/>
    </linearGradient>
  </defs>
  <rect width="160" height="90" fill="url(#cbg)"/>
  <g transform="translate(30,20)">
    <rect x="0" y="0" width="100" height="50" fill="#d2b48c" stroke="#593d2b" stroke-width="4"/>
    <g fill="#b07a48">
      <rect x="0" y="0" width="12.5" height="12.5"/>
      <rect x="25" y="0" width="12.5" height="12.5"/>
      <rect x="50" y="0" width="12.5" height="12.5"/>
      <rect x="75" y="0" width="12.5" height="12.5"/>
      <rect x="12.5" y="12.5" width="12.5" height="12.5"/>
      <rect x="37.5" y="12.5" width="12.5" height="12.5"/>
      <rect x="62.5" y="12.5" width="12.5" height="12.5"/>
      <rect x="87.5" y="12.5" width="12.5" height="12.5"/>
    </g>
    <g transform="translate(12,5)" fill="#fff" stroke="#d8d8d8" stroke-width="3" stroke-linejoin="round" stroke-linecap="round">
      <path d="M0 36h12l3 6h-18z"/>
      <path d="M6 12l-4 12h8z"/>
      <circle cx="6" cy="8" r="3"/>
    </g>
    <g transform="translate(58,2)" fill="#fff" stroke="#d8d8d8" stroke-width="3" stroke-linejoin="round" stroke-linecap="round">
      <path d="M0 40h16l4 6h-24z"/>
      <path d="M8 14l-6 10h12z"/>
      <circle cx="8" cy="10" r="4"/>
      <rect x="6" y="4" width="4" height="4"/>
    </g>
    <g transform="translate(34,6)" fill="#2c2c2c" stroke="#0e0e0e" stroke-width="3" stroke-linejoin="round" stroke-linecap="round">
      <path d="M0 38h14l4 6h-22z"/>
      <path d="M7 16l-5 10h10z"/>
      <circle cx="7" cy="12" r="3"/>
      <rect x="6" y="6" width="2" height="4"/>
    </g>
  </g>
</svg>
