<svg width="32" height="16" viewBox="0 0 32 16" xmlns="http://www.w3.org/2000/svg">
  <rect width="32" height="16" fill="none" />
  <path d="M0 0h32v4H0z" fill="#ffffff" fill-opacity="0.38" />
  <path d="M0 0h32v1H0z" fill="#000000" fill-opacity="0.18" />
  <path d="M0 10h32v6H0z" fill="#000000" fill-opacity="0.28" />
  <path d="M0 5.5h32v1H0z" fill="#000000" fill-opacity="0.24" />
  <path d="M0 8.5h32v1H0z" fill="#000000" fill-opacity="0.18" />
  <path d="M1 1L13 0l-2.5 5H0z" fill="#ffffff" fill-opacity="0.24" />
  <path d="M19 1.2L32 0l-4 6H15z" fill="#ffffff" fill-opacity="0.18" />
  <path d="M14 4h18l-2.2 3H12z" fill="#000000" fill-opacity="0.22" />
  <path d="M2 12l14 1-1.5 3H0z" fill="#000000" fill-opacity="0.24" />
  <path d="M20 3l8 1-3.5 5h-9z" fill="#ffffff" fill-opacity="0.15" />
  <path d="M6 7l5 .5-1.4 3H3.8z" fill="#000000" fill-opacity="0.2" />
  <rect x="10.5" y="4.5" width="1" height="7" fill="#000000" fill-opacity="0.2" />
  <rect x="22.5" y="3.5" width="1" height="8" fill="#000000" fill-opacity="0.16" />
</svg>
