<svg xmlns="http://www.w3.org/2000/svg" width="24" height="24" viewBox="0 0 24 24" fill="none">
  <defs>
    <linearGradient id="grad-joystick" x1="5" y1="3" x2="19" y2="21" gradientUnits="userSpaceOnUse">
      <stop offset="0" stop-color="#38bdf8"/>
      <stop offset="1" stop-color="#a855f7"/>
    </linearGradient>
  </defs>
  <path fill="url(#grad-joystick)" d="M12 3.5a2.5 2.5 0 1 1 0 5 2.5 2.5 0 0 1 0-5Zm-5 6.5h10a4 4 0 0 1 4 4v2.75c0 1.24-1.01 2.25-2.25 2.25H5.25A2.25 2.25 0 0 1 3 16.75V14a4 4 0 0 1 4-4Zm2.25 2.5a1.25 1.25 0 1 0 0 2.5 1.25 1.25 0 0 0 0-2.5Zm5.5 0a1.25 1.25 0 1 0 0 2.5 1.25 1.25 0 0 0 0-2.5Z"/>
  <path fill="url(#grad-joystick)" d="M9.25 20a.75.75 0 0 0 0 1.5h5.5a.75.75 0 0 0 0-1.5h-5.5Z" opacity="0.8"/>
</svg>
