<svg xmlns="http://www.w3.org/2000/svg" width="24" height="24" viewBox="0 0 24 24" fill="none">
  <defs>
    <linearGradient id="grad-uptime" x1="5" y1="5" x2="19" y2="19" gradientUnits="userSpaceOnUse">
      <stop offset="0" stop-color="#34d399"/>
      <stop offset="1" stop-color="#22d3ee"/>
    </linearGradient>
  </defs>
  <path fill="url(#grad-uptime)" d="M12 4a8 8 0 1 1-7.95 8.88.75.75 0 0 1 1.49-.24A6.5 6.5 0 1 0 12 5.5a.75.75 0 0 1 0-1.5Zm5.53 3.22a.75.75 0 0 1 .25 1.03l-2.8 4.5a2.75 2.75 0 1 1-1.3-1.02l3.66-3.3a.75.75 0 0 1 1.19.79ZM12 14.75a1.25 1.25 0 1 0 0-2.5 1.25 1.25 0 0 0 0 2.5Z"/>
</svg>
